<svg id="Capa_1" data-name="Capa 1" xmlns="http://www.w3.org/2000/svg" viewBox="0 0 518 292"><defs><style>.cls-1{fill:#009640;}.cls-2{fill:#95c11f;}.cls-3{fill:none;stroke:#95c11f;stroke-miterlimit:10;stroke-width:6px;}</style></defs><path class="cls-1" d="M349.7,124a93.7,93.7,0,0,0-187.4,0c0,1.76,0,3.38.15,4.84-.1,1.46-.15,3.08-.15,4.84a93.7,93.7,0,0,0,187.4,0c0-1.76-.05-3.38-.15-4.84C349.65,127.36,349.7,125.74,349.7,124ZM256,35.28a88.82,88.82,0,0,1,88.4,81.41l-.21-.09c-4.34-1.78-9.61,1.94-16.67,8.71-1.69-1.69-3.38-3.41-5-5-17-17.31-40.17-41-66.54-41s-49.59,23.72-66.54,41c-1.6,1.64-3.29,3.37-5,5-7.06-6.77-12.33-10.48-16.67-8.71l-.21.09A88.82,88.82,0,0,1,256,35.28Zm67.94,93.54q-2.35,2.37-5,5.06c-16.33,16.68-38.69,39.53-63,39.53s-46.63-22.85-63-39.53c-1.75-1.78-3.41-3.48-5-5.06q2.35-2.37,5-5.06c16.33-16.68,38.69-39.53,63-39.53s46.63,22.85,63,39.53Q321.58,126.45,323.94,128.82ZM169.7,121.23a1.29,1.29,0,0,1,.53-.1c2.05,0,6.15,3.39,10.66,7.7-4.94,4.7-9.39,8.31-11.19,7.59-.33-.14-1.76-1.1-2.24-7.6C167.94,122.32,169.37,121.36,169.7,121.23ZM256,222.36A88.82,88.82,0,0,1,167.6,141l.21.09c4.34,1.78,9.61-1.94,16.67-8.71,1.69,1.69,3.38,3.41,5,5,16.95,17.31,40.17,41,66.54,41s49.58-23.72,66.54-41c1.6-1.64,3.29-3.36,5-5,5.87,5.63,10.51,9.15,14.4,9.15a5.88,5.88,0,0,0,2.27-.44l.21-.09A88.82,88.82,0,0,1,256,222.36Zm86.3-85.94c-1.79.72-6.24-2.89-11.19-7.6,4.94-4.71,9.4-8.31,11.19-7.59.33.13,1.76,1.09,2.24,7.59C344.06,135.32,342.63,136.28,342.3,136.42Z" transform="translate(3 1)"/><path class="cls-2" d="M344.4,141a88.7,88.7,0,0,1-176.8,0l.21.09c4.34,1.78,9.61-1.94,16.67-8.71,1.69,1.69,3.38,3.41,5,5,16.95,17.31,40.17,41,66.54,41s49.58-23.72,66.54-41c1.6-1.64,3.29-3.36,5-5,5.87,5.63,10.51,9.15,14.4,9.15a5.88,5.88,0,0,0,2.27-.44Z" transform="translate(3 1)"/><path class="cls-2" d="M344.54,128.82c-.48,6.5-1.91,7.46-2.24,7.6-1.79.72-6.24-2.89-11.19-7.6,4.94-4.71,9.4-8.31,11.19-7.59C342.63,121.36,344.06,122.32,344.54,128.82Z" transform="translate(3 1)"/><path class="cls-2" d="M180.89,128.83c-4.94,4.7-9.39,8.31-11.19,7.59-.33-.14-1.76-1.1-2.24-7.6.48-6.5,1.91-7.46,2.24-7.59a1.29,1.29,0,0,1,.53-.1C172.28,121.13,176.38,124.52,180.89,128.83Z" transform="translate(3 1)"/><path class="cls-1" d="M256,96.26a20.86,20.86,0,1,0,20.85,20.86A20.88,20.88,0,0,0,256,96.26ZM256,133a15.86,15.86,0,1,1,15.85-15.85A15.87,15.87,0,0,1,256,133Z" transform="translate(3 1)"/><path class="cls-2" d="M271.85,117.12A15.85,15.85,0,1,1,256,101.26,15.87,15.87,0,0,1,271.85,117.12Z" transform="translate(3 1)"/><rect class="cls-3" x="3" y="3" width="512" height="286"/></svg>